<?xml version="1.0" encoding="UTF-8"?> <svg xmlns="http://www.w3.org/2000/svg" width="20" height="14" viewBox="0 0 20 14" fill="none"><path d="M19.2131 4.50166C19.2162 4.55669 19.2121 4.61269 19.1983 4.66831L17.9646 9.60289C17.9024 9.85149 17.6796 10.0263 17.4235 10.0276L10.0216 10.065C10.0206 10.065 10.0197 10.065 10.0188 10.065H2.61682C2.35933 10.065 2.13495 9.88962 2.07275 9.63975L0.839103 4.68648C0.824897 4.62936 0.820785 4.57179 0.824374 4.51534C0.34714 4.36498 0 3.91841 0 3.39213C0 2.74278 0.528224 2.21456 1.17757 2.21456C1.82692 2.21456 2.35514 2.74278 2.35514 3.39213C2.35514 3.75781 2.18759 4.08498 1.92523 4.30113L3.46976 5.85732C3.86011 6.25067 4.40179 6.47616 4.95596 6.47616C5.61122 6.47616 6.23596 6.16498 6.62938 5.64364L9.1677 2.28035C8.95447 2.06727 8.82243 1.77284 8.82243 1.4482C8.82243 0.798854 9.35065 0.27063 10 0.27063C10.6493 0.27063 11.1776 0.798854 11.1776 1.4482C11.1776 1.76312 11.0526 2.04895 10.8505 2.26046C10.8511 2.26136 10.852 2.26211 10.8526 2.26308L13.3726 5.63564C13.7658 6.16199 14.3928 6.47624 15.0499 6.47624C15.6092 6.47624 16.1351 6.25844 16.5305 5.86293L18.0848 4.30869C17.8169 4.09261 17.6449 3.76229 17.6449 3.39213C17.6449 2.74278 18.1731 2.21456 18.8224 2.21456C19.4718 2.21456 20 2.74278 20 3.39213C20 3.90435 19.6707 4.34001 19.2131 4.50166ZM17.8443 11.822C17.8443 11.5123 17.5932 11.2613 17.2835 11.2613H2.77884C2.46916 11.2613 2.21809 11.5123 2.21809 11.822V13.1678C2.21809 13.4775 2.46916 13.7286 2.77884 13.7286H17.2835C17.5932 13.7286 17.8443 13.4775 17.8443 13.1678V11.822Z" fill="#FF5C00"></path></svg> 